<?xml version="1.0" encoding="utf-8"?>
<!-- Generator: Adobe Illustrator 24.0.3, SVG Export Plug-In . SVG Version: 6.00 Build 0)  -->
<svg version="1.1" id="Layer_1" xmlns="http://www.w3.org/2000/svg" xmlns:xlink="http://www.w3.org/1999/xlink" x="0px" y="0px"
	 viewBox="0 0 150 150" style="enable-background:new 0 0 150 150;" xml:space="preserve">
<style type="text/css">
	.st0{fill:#0D2D6C;}
	.st1{fill:#E31838;}
</style>
<g>
	<path id="logoMark__x3C_CompoundPathItem_x3E__23_" class="st0" d="M147.1,88.5c1.4,0,2.6,1.2,2.6,2.6c0,1.4-1.2,2.6-2.6,2.6
		c-1.4,0-2.6-1.2-2.6-2.6C144.5,89.6,145.6,88.5,147.1,88.5z M147.1,93.2c1.2,0,2.1-1,2.1-2.1c0-1.2-1-2.1-2.1-2.1
		c-1.2,0-2.1,1-2.1,2.1C144.9,92.2,145.9,93.2,147.1,93.2z M146.2,89.9c0-0.1,0.1-0.1,0.1-0.1h1c0.4,0,0.9,0.3,0.9,0.8
		c0,0.5-0.4,0.7-0.6,0.8c0.1,0.3,0.3,0.6,0.4,0.8c0.1,0.1,0,0.2-0.1,0.2h-0.2c-0.1,0-0.1-0.1-0.1-0.1l-0.4-0.9h-0.5v0.9
		c0,0.1-0.1,0.1-0.1,0.1h-0.2c-0.1,0-0.1-0.1-0.1-0.1V89.9z M147.3,90.9c0.3,0,0.4-0.2,0.4-0.4c0-0.2-0.2-0.4-0.4-0.4h-0.7v0.8
		H147.3z"/>
	<a xlink:href="69.1072" >
		<path id="logoMark__x3C_PathItem_x3E__4_" class="st1" d="M73.9,133c-33.4,0-60.3-28.4-57.9-62.3c2-28.8,25.6-52.1,54.4-53.8
			c24.8-1.5,46.6,12.7,56.3,33.6c0.2,0.5,0.7,0.8,1.3,0.8h13c1,0,1.7-1,1.4-1.9C131.8,21.4,104.5,1.5,72.7,2
			C34.2,2.6,2.5,33.7,1,72.1c-1.6,41.6,31.7,75.8,72.9,75.8c31.3,0,58-19.7,68.4-47.4c0.3-0.9-0.4-1.9-1.4-1.9h-13
			c-0.6,0-1.1,0.3-1.3,0.8C117.3,119.2,97.2,133,73.9,133z"/>
	</a>
	<path id="logoMark__x3C_CompoundPathItem_x3E__22_" class="st0" d="M48.6,56c5.2,0,9,1.6,12.5,4.8c0.5,0.4,0.5,1,0.1,1.4l-4,4.2
		c-0.4,0.4-0.9,0.4-1.3,0c-1.9-1.7-4.4-2.6-7-2.6c-5.8,0-10.1,4.9-10.1,10.6c0,5.7,4.3,10.5,10.2,10.5c2.4,0,5.1-0.9,6.9-2.5
		c0.4-0.3,1-0.3,1.3,0.1l4,4.3c0.4,0.4,0.3,1-0.1,1.4c-3.5,3.4-8,5-12.5,5c-10.3,0-18.6-8.2-18.6-18.5C29.9,64.3,38.3,56,48.6,56z"
		/>
	<path id="logoMark__x3C_CompoundPathItem_x3E__21_" class="st0" d="M67.3,57.5c0-0.5,0.5-1,1-1h6.2c0.5,0,1,0.5,1,1v34.2
		c0,0.5-0.5,1-1,1h-6.2c-0.5,0-1-0.5-1-1V57.5z"/>
	<path id="logoMark__x3C_CompoundPathItem_x3E__20_" class="st0" d="M82.3,87.8l2.4-4.3c0.4-0.7,1.4-0.6,1.8-0.3
		c0.2,0.1,3.9,2.8,7.3,2.8c2.1,0,3.6-1.3,3.6-3.1c0-2.2-1.8-3.8-5.3-5.2c-4.4-1.8-10-5.2-10-11.4C82,61.2,86,56,94,56
		c5.4,0,9.5,2.7,11.1,3.9c0.6,0.4,0.5,1.3,0.3,1.7l-2.6,4c-0.4,0.6-1.3,1-1.8,0.7c-0.5-0.3-4.2-3.1-7.4-3.1c-1.9,0-3.3,1.2-3.3,2.6
		c0,1.9,1.5,3.4,5.6,5c4,1.6,10.4,4.8,10.4,11.8c0,5.3-4.6,10.7-12.2,10.7c-6.7,0-10.4-2.8-11.6-4C82,88.7,81.9,88.5,82.3,87.8z"/>
	<path id="logoMark__x3C_CompoundPathItem_x3E__19_" class="st0" d="M108,91.3l16.2-34.8c0.2-0.3,0.5-0.6,0.9-0.6h0.5
		c0.4,0,0.7,0.3,0.9,0.6l16.2,34.8c0.3,0.7-0.1,1.3-0.9,1.3H136c-0.9,0-1.3-0.3-1.8-1.3l-1.9-4.1h-14l-1.9,4.1
		c-0.3,0.6-0.8,1.2-1.9,1.2h-5.7C108.1,92.7,107.7,92,108,91.3z M129.2,80.3l-3.9-8.5h-0.1l-3.9,8.5H129.2z"/>
</g>
</svg>
